<?xml version="1.0" encoding="UTF-8"?>
<svg xmlns="http://www.w3.org/2000/svg" viewBox="0 0 795 50" width="795" height="50">
<path d="M87.39 13.84C98.47 13.26 109.8 14.01 120.83 14.69C145.53 16.23 170.39 17.65 195.17 17.07C253.45 15.7 311.56 14.44 369.83 16.83C388.81 17.61 407.9 16.52 426.83 17.69C436.86 18.32 447.11 17.83 457.17 17.83C478.96 17.83 500.75 17.89 522.5 16.92C537.84 16.23 553.14 14.48 568.5 14.01C585.12 13.5 601.6 14.43 618.17 15C637.86 15.68 657.38 17.53 677.17 16.93C698.91 16.26 720.71 14 742.5 15.28C752.09 15.85 761.9 16.74 771.5 16.83C773.78 16.85 780.48 15.87 780.48 19.5C780.48 23.45 773.52 21.88 771.17 21.83C760.97 21.61 750.72 20.26 740.5 20.17C719.3 19.97 698.31 21.28 677.17 21.93C655.03 22.61 632.54 21.52 610.5 19.68C586.73 17.69 563.2 19.83 539.5 20.92C525.07 21.58 510.57 21.83 496.17 22.69C484.69 23.38 473 22.83 461.5 22.83C446.42 22.83 431.19 23.24 416.17 22.31C402.78 21.47 389.25 22.34 375.83 21.93C352.62 21.21 329.38 20.79 306.17 20.07C269.76 18.95 233.21 21.19 196.83 22C183.13 22.31 169.13 22.56 155.5 21.32C144.89 20.36 134.14 20.42 123.5 19.82C100.15 18.48 76.18 17.92 52.83 19.7C44.8 20.31 36.56 20.93 28.5 21C26.42 21.02 21.38 22.35 20.82 19.4C19.94 14.69 32.99 15.95 36.14 15.58C53.11 13.58 70.34 14.74 87.39 13.84Z" fill="#000000" fill-rule="evenodd" stroke="#000000" stroke-width="0.25" stroke-linejoin="round"/>
</svg>